Coordinates
version=1
nRows=43
nColumns=12
inDegrees=yes

Units are S.I. units (second, meters, Newtons, ...)
Angles are in degrees

endheader
time	SC_y	SC_z	SC_x	AC_y	AC_z	AC_x	GH_y	GH_z	GH_yy	EL_x	PS_y
       0.0              -42.46           23.7          78.26          65.43          -1.91          12.06         -146.8          81.33          98.23          107.6          65.08
  0.001737              -42.46           23.7          78.26          65.42         -1.909          12.06         -146.8          81.32           98.2          107.6          65.08
  0.003473              -42.46           23.7          78.26          65.42         -1.908          12.06         -146.8          81.31          98.17          107.6          65.08
   0.00521              -42.45          23.69          78.25          65.42         -1.906          12.06         -146.8          81.31          98.13          107.6          65.08
  0.006947              -42.45          23.69          78.25          65.42         -1.905          12.05         -146.8          81.29          98.09          107.6          65.08
  0.008684              -42.45          23.69          78.25          65.41         -1.903          12.05         -146.8          81.28          98.05          107.6          65.08
   0.01042              -42.44          23.69          78.25          65.41         -1.901          12.05         -146.7          81.27          98.01          107.6          65.08
   0.01216              -42.44          23.69          78.25          65.41         -1.899          12.05         -146.7          81.26          97.96          107.6          65.08
   0.01389              -42.44          23.68          78.25          65.41         -1.897          12.05         -146.7          81.24          97.91          107.6          65.08
   0.01563              -42.43          23.68          78.24           65.4         -1.895          12.05         -146.7          81.23          97.86          107.6          65.08
   0.01737              -42.43          23.68          78.24           65.4         -1.892          12.05         -146.7          81.21           97.8          107.6          65.08
    0.0191              -42.42          23.68          78.24           65.4          -1.89          12.04         -146.7           81.2          97.74          107.6          65.08
   0.02084              -42.42          23.67          78.24          65.39         -1.887          12.04         -146.7          81.18          97.67          107.5          65.08
   0.02258              -42.41          23.67          78.23          65.39         -1.884          12.04         -146.7          81.16           97.6          107.5          65.08
   0.02431              -42.41          23.67          78.23          65.38         -1.881          12.04         -146.7          81.14          97.52          107.5          65.08
   0.02605               -42.4          23.66          78.23          65.38         -1.877          12.04         -146.6          81.11          97.44          107.5          65.08
   0.02779              -42.39          23.66          78.23          65.37         -1.874          12.03         -146.6          81.09          97.35          107.5          65.08
   0.02952              -42.39          23.65          78.22          65.37         -1.869          12.03         -146.6          81.06          97.25          107.5          65.08
   0.03126              -42.38          23.65          78.22          65.36         -1.865          12.03         -146.6          81.03          97.14          107.5          65.09
     0.033              -42.37          23.64          78.21          65.36          -1.86          12.02         -146.6           81.0          97.02          107.5          65.09
   0.03473              -42.36          23.64          78.21          65.35         -1.854          12.02         -146.5          80.96          96.89          107.5          65.09
   0.03647              -42.35          23.63           78.2          65.34         -1.848          12.02         -146.5          80.92          96.74          107.5          65.09
   0.03821              -42.34          23.62           78.2          65.33         -1.842          12.01         -146.5          80.88          96.58          107.5          65.09
   0.03995              -42.33          23.62          78.19          65.32         -1.834          12.01         -146.5          80.83          96.41          107.5          65.09
   0.04168              -42.31          23.61          78.18          65.31         -1.826           12.0         -146.4          80.78          96.21          107.5          65.09
   0.04342              -42.29           23.6          78.18           65.3         -1.817          11.99         -146.4          80.71          95.99          107.5          65.09
   0.04516              -42.28          23.59          78.17          65.28         -1.807          11.99         -146.3          80.65          95.74          107.4          65.09
   0.04689              -42.26          23.58          78.16          65.27         -1.795          11.98         -146.3          80.57          95.47          107.4          65.09
   0.04863              -42.23          23.56          78.14          65.25         -1.782          11.97         -146.2          80.49          95.16          107.4           65.1
   0.05037              -42.21          23.55          78.13          65.23         -1.767          11.96         -146.2          80.39           94.8          107.4           65.1
    0.0521              -42.18          23.53          78.12           65.2         -1.751          11.95         -146.1          80.28           94.4          107.4           65.1
   0.05384              -42.14          23.51           78.1          65.18         -1.731          11.93         -146.0          80.15          93.93          107.3           65.1
   0.05558               -42.1          23.48          78.08          65.15         -1.709          11.92         -145.9           80.0          93.39          107.3          65.11
   0.05731              -42.06          23.46          78.06          65.11         -1.683           11.9         -145.8          79.83          92.77          107.3          65.11
   0.05905               -42.0          23.42          78.03          65.07         -1.653          11.88         -145.7          79.63          92.04          107.2          65.11
   0.06079              -41.94          23.39           78.0          65.02         -1.617          11.85         -145.5          79.39          91.18          107.2          65.12
   0.06252              -41.86          23.34          77.96          64.96         -1.574          11.82         -145.3          79.11          90.16          107.1          65.13
   0.06426              -41.77          23.29          77.91          64.89         -1.523          11.79         -145.1          78.77          88.93          107.0          65.13
     0.066              -41.66          23.22          77.86           64.8         -1.461          11.74         -144.8          78.36          87.45          106.9          65.14
   0.06773              -41.53          23.14          77.79           64.7         -1.386          11.69         -144.5          77.86          85.64          106.8          65.15
   0.06947              -41.36          23.04          77.71          64.57         -1.293          11.63         -144.1          77.25          83.41          106.7          65.16
   0.07121              -41.16          22.92          77.61          64.41         -1.177          11.54         -143.6          76.48          80.62          106.5          65.18
   0.07294               -40.9          22.76          77.48          64.21         -1.031          11.44         -142.9          75.52          77.11          106.3           65.2
